<?xml version="1.0" encoding="utf-8"?>
<!-- Generator: Adobe Illustrator 19.1.0, SVG Export Plug-In . SVG Version: 6.00 Build 0)  -->
<svg version="1.1" id="Capa_1" xmlns="http://www.w3.org/2000/svg" xmlns:xlink="http://www.w3.org/1999/xlink" x="0px" y="0px"
	 viewBox="0 0 300 300" style="enable-background:new 0 0 300 300;" xml:space="preserve">
<style type="text/css">
	.st0{fill:#FFFFFF;}
</style>
<g>
	<path class="st0" d="M43.2,108.6C43.2,108.6,43.2,108.6,43.2,108.6c0.1-0.3,0.3-0.5,0.4-0.7c-0.3,0.3-0.5,0.5-0.8,0.7
		c0.2-0.1,0.4-0.1,0.3,0.3c0,0,0,0,0,0C43.2,108.7,43.2,108.6,43.2,108.6C43.2,108.6,43.2,108.6,43.2,108.6z"/>
	<path class="st0" d="M44,107.2c-0.1,0.2-0.3,0.4-0.4,0.7c0,0,0.1-0.1,0.1-0.1C43.8,107.5,43.9,107.3,44,107.2z"/>
	<path class="st0" d="M257.7,86.5c-0.1-0.2-0.3-0.5-0.4-0.7c0,0.1,0.1,0.1,0.1,0.2C257.5,86.2,257.6,86.3,257.7,86.5z"/>
	<path class="st0" d="M32.7,124.7c0.1-0.4,0.2-1.1,0.2-1.1c0.7-0.5,1.1-1.2,1.5-1.9c0.4-0.7,0.7-1.5,1-2.2c-0.3,0.1-0.5,0.3-0.8,0.4
		c-0.4,0.8-0.3,1,0.4,0.5c-1.5,1.3-2.4,2.9-3.1,4.6C32,125,32.3,125.1,32.7,124.7z"/>
	<path class="st0" d="M256.8,85.2C256.8,85.2,256.8,85.2,256.8,85.2c0.2,0.2,0.3,0.5,0.5,0.7c-0.1-0.4-0.2-0.7-0.2-1
		c0,0.3-0.1,0.4-0.4,0.2c0,0,0,0,0,0C256.7,85,256.8,85.1,256.8,85.2C256.8,85.2,256.8,85.2,256.8,85.2z"/>
	<path class="st0" d="M134.4,24.1c0.4-0.1,1.1-0.3,1.1-0.3c0.7,0.4,1.5,0.5,2.3,0.6c0.8,0.1,1.6,0,2.4,0c-0.2-0.2-0.4-0.4-0.7-0.6
		c-0.9-0.1-1.1,0.2-0.3,0.5c-1.8-0.9-3.6-1-5.4-1C134,23.6,133.9,23.9,134.4,24.1z"/>
	<path class="st0" d="M153.4,26.8c-0.1-0.1-0.3-0.2-0.4-0.3C153.2,26.6,153.3,26.7,153.4,26.8z"/>
	<path class="st0" d="M247.6,68.2c0.3,0.2,0.9,0.7,0.9,0.7c0.1,0.8,0.5,1.5,0.9,2.2c0.4,0.7,0.9,1.3,1.5,1.9c0-0.3,0-0.6,0-0.9
		c-0.5-0.8-0.8-0.7-0.6,0.1c-0.4-2-1.4-3.5-2.5-4.9C247.7,67.5,247.4,67.7,247.6,68.2z"/>
	<path class="st0" d="M153.5,27.2C153.5,27.2,153.5,27.2,153.5,27.2c0.3,0,0.6,0,0.8,0c-0.4-0.1-0.7-0.3-0.9-0.4
		c0.2,0.2,0.3,0.3-0.1,0.4c0,0,0,0,0,0C153.4,27.2,153.4,27.2,153.5,27.2C153.5,27.2,153.5,27.2,153.5,27.2z"/>
	<path class="st0" d="M155.1,27.3c-0.3,0-0.5-0.1-0.8-0.1c0.1,0,0.1,0,0.2,0C154.7,27.3,154.9,27.3,155.1,27.3z"/>
	<path class="st0" d="M196,269c-1-0.3-2.2-0.4-3.4,0.2C193.7,269.5,195,269.4,196,269z"/>
	<path class="st0" d="M52.6,96.5c1-0.4,2-1,2.6-2.2C54.1,94.7,53.1,95.6,52.6,96.5z"/>
	<path class="st0" d="M171.4,32.3c-0.9-0.8-2-1.3-3.1-1.4C169.1,31.6,170.1,32.3,171.4,32.3z"/>
	<path class="st0" d="M228.9,258.5c-0.3,0.2-0.8,0.7-0.8,0.7c-0.8,0-1.6,0.3-2.3,0.6c-0.7,0.3-1.4,0.7-2.1,1.2
		c0.3,0.1,0.6,0.1,0.9,0.2c0.8-0.4,0.8-0.7,0-0.6c2-0.1,3.6-0.9,5.3-1.7C229.6,258.7,229.5,258.5,228.9,258.5z"/>
	<path class="st0" d="M209.3,265.7c0.2-0.1,0.5-0.2,0.7-0.3c-0.1,0-0.1,0-0.2,0C209.6,265.5,209.4,265.6,209.3,265.7z"/>
	<path class="st0" d="M210.7,265C210.7,265,210.7,265,210.7,265c-0.3,0.1-0.5,0.2-0.8,0.4c0.4-0.1,0.7-0.1,1-0.1
		c-0.2-0.1-0.4-0.2-0.1-0.4c0,0,0,0,0,0C210.9,265,210.8,265,210.7,265C210.7,265,210.7,265,210.7,265z"/>
	<path class="st0" d="M263.7,102.4c0.1-1.1-0.2-2.4-0.7-3.3C262.9,100.2,262.9,101.4,263.7,102.4z"/>
	<path class="st0" d="M121.3,25.1c0.7,0,1.3,0,2,0.1c-0.3-0.1-0.7-0.2-1-0.3C121.8,24.7,121.6,24.9,121.3,25.1z"/>
	<path class="st0" d="M125.4,25.2c0.1,0,0.2-0.1,0.3-0.1l-0.7,0.1C125.2,25.2,125.3,25.2,125.4,25.2z"/>
	<path class="st0" d="M128.5,25c-0.6-0.1-1.2-0.1-1.7,0C127.3,25.1,127.8,25.1,128.5,25z"/>
	<path class="st0" d="M125.8,25.1C125.8,25.1,125.7,25.1,125.8,25.1c0.3,0,0.7-0.1,1-0.1c-0.4-0.1-0.7-0.2-1-0.3
		C126,24.9,126.1,25,125.8,25.1z"/>
	<path class="st0" d="M125.8,24.7c-0.1-0.1-0.3-0.2-0.4-0.2C125.5,24.6,125.6,24.6,125.8,24.7z"/>
	<path class="st0" d="M126.8,21.3c0.4-0.1,0.2,0.8,0.9,0.7c1.6-0.2,3.1-0.5,4.6-0.4c0.7-0.2,1.7,1,2.5,0.8c0.8-0.1,2.3-0.4,3.3-0.7
		c1-0.2,1.4-0.5,0.2-0.6c-3.7-0.1-6.2,0-9.5,0c-1.4,0.1-2.7,0.3-4,0.5c-1.3,0.2-2.7,0.4-4.1,0.6c-0.8,0-1.5,0-2.2-0.1
		c1,0.2,1.9,0.3,3,0.5C122.8,22.8,124.5,21.5,126.8,21.3z"/>
	<path class="st0" d="M106.7,24.9c0.3-0.1,1-0.4,1-0.4c1.6,0.6,3.2,0.3,4.8-0.1c-0.2-0.1-0.5-0.3-0.7-0.4c-0.9,0.1-1,0.4-0.2,0.5
		c-1.9-0.5-3.7-0.5-5.5-0.3C106.2,24.5,106.2,24.8,106.7,24.9z"/>
	<path class="st0" d="M106.1,24.3C106.1,24.3,106,24.2,106.1,24.3c-0.4,0-0.8,0-1.1,0.1l0,0C105.4,24.4,105.7,24.3,106.1,24.3z"/>
	<path class="st0" d="M239.6,59c-0.2-0.4-0.5-0.5-0.8-0.6c0.4,0.5,0.8,1.1,1.2,1.6C239.8,59.6,239.7,59.3,239.6,59z"/>
	<path class="st0" d="M241.2,61.7c0.1,0.1,0.2,0.1,0.3,0.2l-0.5-0.5C241.1,61.5,241.1,61.6,241.2,61.7z"/>
	<path class="st0" d="M242.2,62.7c0.3,0.4,0.6,0.9,1,1.4C242.9,63.5,242.6,63.1,242.2,62.7z"/>
	<path class="st0" d="M241.5,61.9C241.5,61.9,241.5,61.9,241.5,61.9c0.2,0.2,0.5,0.5,0.7,0.7c-0.2-0.3-0.3-0.6-0.4-0.9
		C241.8,62,241.8,62.1,241.5,61.9z"/>
	<path class="st0" d="M245.1,60.4c0.3,0.2-0.5,0.7,0,1.2c1.1,1.2,2.3,2.1,3.1,3.4c0.6,0.5,0.3,2,0.9,2.4c0.6,0.6,1.7,1.6,2.5,2.2
		c0.8,0.6,1.3,0.8,0.6-0.2c-2.2-3.1-3.8-4.9-5.8-7.6c-0.9-1-1.9-1.9-2.9-2.9c-1-0.9-2-1.9-2.9-2.9c-0.5-0.6-0.9-1.2-1.3-1.8
		c0.5,0.8,0.9,1.7,1.5,2.7C241.5,58.1,243.6,58.8,245.1,60.4z"/>
	<path class="st0" d="M230,46.7c0.3,0.2,0.9,0.6,0.9,0.6c0.5,1.6,1.7,2.7,3,3.7c0-0.3-0.1-0.6-0.1-0.9c-0.6-0.7-0.9-0.6-0.5,0.2
		c-0.8-1.8-1.9-3.2-3.1-4.5C230,46.1,229.7,46.3,230,46.7z"/>
	<path class="st0" d="M230.1,45.8C230.1,45.8,230.1,45.8,230.1,45.8c-0.2-0.3-0.5-0.6-0.8-0.8l0,0C229.6,45.3,229.9,45.6,230.1,45.8
		z"/>
	<path class="st0" d="M278.2,139.4c-0.7-8.3-2.2-16.6-4.3-25.2c-0.3-1.1-0.6-2.3-1-3.3c-0.4-1-0.8-2-1.3-3c-0.9-1.9-1.7-3.8-2.7-5.6
		c-1.2-2.6-1.8-5.7-2.6-7.9c-1.5-3.4-3-6.2-4.7-8.7c1.6,3,2.8,5.2,4.4,8.6c0.3,0.6,0.3,0.8,0.1,0.8c-0.1,0-0.4-0.3-0.8-0.7
		c-0.7-0.7-1.7-1.9-2.1-2.6c-0.5-0.6,0-2-0.4-2.6c-0.6-1.4-1.5-2.5-2.6-3.9c-0.5-0.5,0.4-0.9,0.1-1.2c-1.2-1.9-3.1-2.9-3.5-4.3
		c-0.2-0.5-0.4-1-0.5-1.5c-0.2-0.5-0.4-0.9-0.5-1.4c-0.3-0.5-0.5-1.1-0.9-1.6c-0.3-0.3-0.5-0.6-0.8-0.9c-1-1.1-2-2.4-3.1-3.6
		c-1-1.3-2.2-2.4-3.2-3.6c0,0,0,0.1,0,0.1c1.1,1.5,2.1,3,2.5,4.9c-0.2-0.8,0-0.9,0.6-0.1c0,0.3,0,0.6,0,0.9
		c-0.5-0.6-1.1-1.3-1.5-1.9c-0.4-0.7-0.8-1.4-0.9-2.2c0,0-0.6-0.5-0.9-0.7c-0.2-0.5,0.1-0.6,0.2-0.9c-0.2-0.3-0.4-0.6-0.7-0.9
		c0,0.9,0.9,3.2,0.9,3.2c0.3,0.5,0.6,0.9,1,1.4c0.3,0.5,0.6,1,0.9,1.5c0.6,1,1.1,1.9,1.7,2.9c0.5,0.9,1.1,1.9,1.6,2.8
		c0.3,0.5,0.5,0.9,0.8,1.4l0.7,1.4c0.3,0.2,0.6,0.3,0.7,0.7c0,0.4,0.1,0.7,0.2,1c0.3,0.6,0.5,1.1,0.8,1.7c0.1,0.2,0.2,0.4,0.4,0.5
		c0,0,0,0,0,0c0.3,0.3,0.3,0.1,0.4-0.2c0,0.3,0.1,0.6,0.2,1c0.1,0.2,0.3,0.4,0.4,0.7c-0.1-0.2-0.2-0.3-0.3-0.5
		c0-0.1-0.1-0.1-0.1-0.2c-0.2-0.2-0.3-0.5-0.5-0.7c0,0,0,0,0,0c0,0,0,0,0,0c0-0.1-0.1-0.1-0.1-0.2c-0.1-0.1-0.1-0.1-0.2-0.2
		c0.6,1.3,1.2,2.5,1.8,3.8c0.2,0.3,0.3,0.6,0.4,0.8c0.5,0.9,1,1.7,0.9,2.5c0.1,0.2,0.2,0.5,0.3,0.7l0-0.2c0,0.1,0,0.2,0,0.3
		c0.4,1,0.8,2,1.2,3c0.4,1,0.7,2,1,3c0.3,1,0.7,2,1,3c2.1,6.5,3.6,12.9,5,19.4c0.3,1.6,0.5,3.3,0.8,4.9c0.1,0.8,0.3,1.7,0.4,2.5
		c0.1,0.8,0.2,1.7,0.3,2.5c0.2,1.7,0.3,3.4,0.5,5.1c0.1,1.7,0.1,3.5,0.2,5.2c0.1,6.2-0.3,12.3-1.1,18.1c0-0.3,0-0.7,0-1
		c0-13.9-2.5-27.2-7.2-39.5c0.8-2.6,0.4-4.7-0.4-7.1c-0.8-2.4-2.1-5.2-3.2-9.5c0.6,2.5-0.3,1.6-1.6-0.6c-0.7-1.2-1.4-2.7-2.2-4.4
		c-0.7-1.7-1.3-3.4-1.6-5c-0.7-4.7-3.6-9.3-7-13.7c-0.9-1.1-1.8-2.2-2.7-3.3c-0.9-1.1-1.9-2.1-2.8-3.2c-1.8-2.2-3.8-4.2-5.4-6.4
		c-0.8-1.1-1.8-2.1-2.9-3.1c-1.1-1-2.1-2.2-3.3-3.3c-5.7-6.3-12.2-11.4-19.2-15.9c-7-4.5-14.5-8.4-22.6-12c-1.1-0.5-2.1-0.9-3.2-1.2
		c-1.1-0.3-2.1-0.6-3.2-0.8c-2.1-0.5-4.1-0.9-6-1.3c-2.8-0.7-5.6-2.1-7.8-2.8c-3.6-0.9-6.7-1.4-9.8-1.6c3.3,0.6,5.8,1,9.5,1.7
		c0.6,0.1,0.8,0.3,0.7,0.4c-0.1,0.1-0.5,0.1-1,0.2c-1,0.1-2.5,0.1-3.4,0.1c-0.7,0-1.6-1.3-2.3-1.2c-1.5-0.4-3-0.3-4.6-0.3
		c-0.7,0.1-0.5-0.8-0.8-0.8c-2.3-0.2-4.2,0.7-5.5,0.2c-0.5-0.2-1-0.3-1.5-0.5c-0.5-0.1-1-0.3-1.4-0.4c-0.6-0.1-1.2-0.2-1.8-0.3
		c-0.4,0-0.8,0.1-1.2,0.1c-1.5,0.1-3.1,0.2-4.7,0.2c-1.6,0-3.3,0.2-4.8,0.3c0,0,0,0.1,0,0.1c1.8,0,3.6,0.2,5.4,1
		c-0.8-0.3-0.7-0.6,0.3-0.5c0.2,0.2,0.4,0.4,0.7,0.6c-0.8,0-1.6,0.1-2.4,0c-0.8-0.1-1.6-0.2-2.3-0.6c0,0-0.7,0.2-1.1,0.3
		c-0.5-0.2-0.5-0.5-0.5-0.7c-0.4,0-0.7,0-1.1,0c0.7,0.5,3.1,1.3,3.1,1.3c0.6,0,1.1,0.1,1.7,0.1c0.6,0.1,1.1,0.1,1.7,0.2
		c1.1,0.1,2.2,0.3,3.3,0.4c1.1,0.1,2.2,0.3,3.2,0.4c0.5,0.1,1.1,0.1,1.6,0.2c0.5,0.1,1,0.2,1.6,0.3c0.3-0.1,0.6-0.3,1-0.1
		c0.3,0.2,0.6,0.4,0.9,0.5c0.6,0.1,1.2,0.3,1.8,0.4c0.2,0,0.4,0,0.7,0c0,0,0,0,0,0c0.4,0,0.3-0.2,0.1-0.4c-0.1-0.1-0.3-0.2-0.4-0.3
		c0.1,0.1,0.3,0.2,0.4,0.3c0.3,0.2,0.6,0.3,0.9,0.4c0.3,0,0.5,0,0.8,0.1c-0.2,0-0.4,0-0.6,0c-0.1,0-0.1,0-0.2,0c-0.3,0-0.6,0-0.8,0
		c0,0,0,0,0,0c0,0,0,0,0,0c-0.1,0-0.1,0-0.2,0c-0.1,0-0.2,0-0.3,0c1.4,0.3,2.7,0.6,4.1,0.9c0.3,0.1,0.6,0.1,0.9,0.1
		c1,0.1,2,0.2,2.5,0.8c0.2,0.1,0.5,0.1,0.7,0.2l-0.1-0.1c0.1,0.1,0.2,0.1,0.3,0.2c1,0.3,2,0.6,3,0.9c1,0.3,2,0.6,3,1
		c1,0.4,2,0.7,3,1.1c6.5,2.3,12.5,5,18.4,7.9c1.5,0.8,2.9,1.6,4.4,2.4c0.7,0.4,1.5,0.8,2.2,1.2c0.7,0.4,1.4,0.9,2.2,1.3
		c1.4,0.9,2.9,1.8,4.3,2.7c1.4,1,2.8,2,4.3,3c6.1,4.6,11.6,9.5,16.4,14.9c1.7,2,3.4,3.9,5.1,5.8c-15.7-12.7-34.9-21.3-56-24
		c-0.2-0.3-0.4-0.6-0.5-0.6c-2.1-1.9-4.2-2.4-6.8-2.6c-2.5-0.2-5.6-0.2-10-0.9c2.5,0.4,1.3,0.9-1.2,1.2c-1.3,0.2-3.1,0.2-4.9,0.2
		c-1.8,0-3.6-0.2-5.2-0.6c-4.6-1.3-10-0.5-15.4,0.9c-1.4,0.4-2.7,0.8-4.1,1.2c-1.4,0.4-2.7,0.9-4.1,1.3c-2.7,0.8-5.4,1.8-8.1,2.4
		c-1.3,0.3-2.6,0.8-4,1.3c-1.4,0.5-2.8,1-4.3,1.7c-8.1,2.6-15.4,6.5-22.3,11.1c-6.9,4.6-13.5,9.8-20.2,15.8
		c-0.9,0.8-1.7,1.6-2.4,2.4c-0.7,0.9-1.4,1.7-2,2.6c-1.3,1.7-2.5,3.3-3.6,5c-1.8,2.3-4.2,4.3-5.7,6c-2.2,2.9-4,5.6-5.4,8.3
		c1.9-2.8,3.2-4.9,5.4-8c0.4-0.5,0.6-0.6,0.6-0.5c0,0.1-0.1,0.5-0.2,1c-0.3,1-0.9,2.4-1.3,3.1c-0.3,0.7-1.8,0.9-2.1,1.6
		c-0.9,1.2-1.5,2.6-2.2,4.1c-0.2,0.7-1,0.1-1.1,0.4c-1.1,2-1.1,4.1-2.1,5.1c-0.4,0.4-0.7,0.8-1.1,1.2c-0.3,0.4-0.6,0.8-0.9,1.1
		c-0.4,0.5-0.7,1-1,1.6c-0.1,0.4-0.3,0.8-0.4,1.2c-0.5,1.4-1.1,2.9-1.7,4.4c-0.6,1.5-1.1,3.1-1.7,4.6c0,0,0.1,0,0.1,0
		c0.8-1.7,1.6-3.2,3.1-4.6c-0.6,0.6-0.8,0.4-0.4-0.5c0.3-0.1,0.5-0.3,0.8-0.4c-0.3,0.8-0.6,1.5-1,2.2c-0.4,0.7-0.8,1.4-1.5,1.9
		c0,0-0.1,0.7-0.2,1.1c-0.4,0.4-0.6,0.2-0.9,0.2c-0.1,0.3-0.3,0.7-0.4,1c0.8-0.5,2.4-2.3,2.4-2.3c0.3-0.5,0.5-1,0.8-1.5
		c0.3-0.5,0.6-1,0.9-1.4c0.6-1,1.2-1.9,1.7-2.8c0.6-0.9,1.1-1.8,1.7-2.8c0.3-0.5,0.6-0.9,0.8-1.4l0.9-1.3c0-0.4,0-0.7,0.3-1
		c0.3-0.2,0.6-0.4,0.8-0.6c0.4-0.5,0.7-1,1.1-1.5c0.1-0.2,0.2-0.4,0.3-0.6c0,0,0,0,0,0c0.1-0.3-0.1-0.3-0.3-0.3
		c0.3-0.2,0.5-0.4,0.8-0.7c0.1-0.2,0.3-0.4,0.4-0.7c-0.1,0.2-0.2,0.4-0.3,0.5c0,0-0.1,0.1-0.1,0.1c-0.1,0.3-0.3,0.5-0.4,0.7
		c0,0,0,0,0,0c0,0,0,0,0,0c0,0.1-0.1,0.1-0.1,0.2c0,0.1-0.1,0.2-0.1,0.3c0.8-1.1,1.6-2.3,2.5-3.4c0.2-0.3,0.3-0.5,0.5-0.7
		c0.5-0.9,1-1.8,1.8-2c0.2-0.2,0.3-0.4,0.5-0.6l-0.2,0.1c0.1-0.1,0.2-0.1,0.2-0.2c0.7-0.8,1.4-1.6,2-2.4c0.6-0.8,1.4-1.5,2.1-2.3
		c0.7-0.8,1.4-1.5,2.2-2.3c4.7-5,9.6-9.4,14.7-13.7c1.3-1,2.6-2,4-3c0.7-0.5,1.3-1,2-1.5c0.7-0.5,1.4-1,2.1-1.4
		c1.4-0.9,2.8-1.9,4.2-2.9c1.5-0.9,3-1.8,4.5-2.7c2.7-1.5,5.4-2.9,8.2-4.2c-29.5,20.1-49,54-49,92.5c0,17.9,4.2,34.9,11.7,49.9
		c21.4-25.3,23.6-52.9,23.6-52.9s15.1,4.3,22.6,0c7.5-4.3,5-11.3-2.5-10.3s-38.6,1-44.7-3.8c-6-4.8-2.5-10.5-1.5-12.8
		c1-2.3,36.9-55.4,77.5-53.7c0,0,7,0.5,16.6,9.5c3.5,3.5,30.4,18.8,48.2,10.3c0,0,9.9,1.1,13.5,2.2c0,0,5.6,2.1,11.1,2.6
		c5.5,5.3,26.1,27.8,23.6,67.2c-0.5,5-5.8,15.6-16.1,15.6c-10.3,0-13.3-2.3-13.3-2.3l-3-20.8c-1.8,37.1-11.8,72-29.1,96.8
		s-66-6.5-66-6.5s43.1,22.1,56.4,6.4c3.3-22.3-52.4-25.4-85-15.1c-4.7,1.5-8.9,2.5-12.7,3.3c1.7,1.5,3.8,3.2,6.4,5.9
		c-1.7-1.8-0.5-1.6,1.7-0.3c1.2,0.7,2.6,1.7,4,2.8c1.4,1.1,2.8,2.4,3.8,3.6c2.9,3.8,7.6,6.4,12.8,8.6c1.3,0.5,2.6,1,4,1.6
		c1.3,0.5,2.7,0.9,4,1.4c2.7,1,5.4,1.9,7.9,3c1.2,0.6,2.6,0.9,4,1.4c1.4,0.4,2.9,0.9,4.5,1.3c8,2.8,16.2,4.1,24.5,4.6
		c8.3,0.5,16.7,0.3,25.6-0.4c1.2-0.1,2.3-0.2,3.4-0.5c1.1-0.2,2.2-0.5,3.2-0.8c2.1-0.6,4-1.1,5.9-1.8c2.8-0.7,5.9-0.9,8.2-1.4
		c3.5-1,6.5-2.1,9.3-3.3c-3.2,1.1-5.5,1.9-9.1,3.1c-0.6,0.2-0.8,0.1-0.8,0c0-0.1,0.3-0.4,0.8-0.7c0.8-0.6,2.2-1.3,2.9-1.7
		c0.6-0.4,2,0.4,2.6,0c1.5-0.4,2.8-1.1,4.2-2c0.6-0.4,0.8,0.5,1.1,0.3c2.1-0.9,3.3-2.6,4.8-2.8c0.5-0.1,1.1-0.2,1.6-0.3
		c0.5-0.1,1-0.2,1.4-0.3c0.6-0.2,1.2-0.4,1.7-0.6c0.3-0.2,0.7-0.4,1-0.7c1.3-0.8,2.6-1.6,4-2.5c1.4-0.8,2.7-1.8,4.1-2.6l-0.1-0.1
		c-1.6,0.9-3.3,1.6-5.3,1.7c0.8-0.1,0.9,0.2,0,0.6c-0.3-0.1-0.6-0.1-0.9-0.2c0.7-0.4,1.4-0.9,2.1-1.2c0.7-0.3,1.5-0.6,2.3-0.6
		c0,0,0.5-0.5,0.8-0.7c0.5-0.1,0.6,0.2,0.8,0.4c0.3-0.2,0.6-0.4,0.9-0.5c-0.9-0.1-3.3,0.4-3.3,0.4c-0.5,0.2-1,0.5-1.5,0.7
		c-0.5,0.2-1,0.4-1.6,0.6c-1,0.4-2.1,0.8-3.1,1.2c-1,0.4-2,0.8-3,1.2c-0.5,0.2-1,0.4-1.5,0.6c-0.5,0.2-1,0.3-1.5,0.5
		c-0.2,0.3-0.4,0.6-0.8,0.6c-0.4-0.1-0.7,0-1.1,0c-0.6,0.2-1.2,0.4-1.8,0.5c-0.2,0.1-0.4,0.2-0.6,0.3c0,0,0,0,0,0
		c-0.3,0.2-0.2,0.3,0.1,0.4c0.2,0,0.3,0.1,0.5,0.1c-0.2,0-0.3-0.1-0.5-0.1c-0.3,0-0.7,0-1,0.1c-0.2,0.1-0.5,0.2-0.7,0.3
		c0.2-0.1,0.4-0.2,0.5-0.3c0.1,0,0.1,0,0.2,0c0.3-0.1,0.5-0.2,0.8-0.4c0,0,0,0,0,0c0,0,0,0,0,0c0.1,0,0.1-0.1,0.2-0.1
		c0.1-0.1,0.2-0.1,0.3-0.2c-1.4,0.4-2.7,0.8-4,1.2c-0.3,0.1-0.6,0.2-0.8,0.3c-0.9,0.4-1.9,0.8-2.6,0.5c-0.2,0.1-0.5,0.1-0.7,0.2
		l0.2,0c-0.1,0-0.2,0-0.3,0c-1,0.2-2.1,0.5-3.1,0.7c-1,0.3-2,0.4-3.1,0.6c-1,0.2-2.1,0.3-3.1,0.5c-6.8,1.1-13.3,1.6-20,2
		c-1.7,0-3.3,0-5,0c-0.8,0-1.7,0-2.5,0c-0.8,0-1.7-0.1-2.5-0.1c-1.7-0.1-3.4-0.2-5.1-0.3c-0.4,0-0.7-0.1-1.1-0.1
		c36.4,0,68.8-17.5,89.2-44.5c0.2,0.4,0.5,0.8,0.9,1c1.1,0.7,2.5,0.4,2.7,0.3c2.7-0.9,4.1-2.5,5.6-4.7c1.4-2.1,2.9-4.8,5.6-8.4
		c-1.6,2-1.5,0.7-0.5-1.6c0.5-1.3,1.3-2.8,2.2-4.4c0.9-1.6,1.9-3.1,3-4.3c3.3-3.4,5.2-8.5,6.6-13.9c0.3-1.4,0.6-2.8,0.9-4.2
		c0.3-1.4,0.5-2.8,0.8-4.2c0.6-2.8,1-5.6,1.8-8.2c0.4-1.3,0.5-2.7,0.7-4.2c0.2-1.5,0.4-3,0.6-4.6C278.9,156,278.9,147.7,278.2,139.4
		z M263,99.1c0.5,0.9,0.8,2.2,0.7,3.3C262.9,101.4,262.9,100.2,263,99.1z M168.4,30.8c1,0.1,2.2,0.7,3.1,1.4
		C170.1,32.3,169.1,31.6,168.4,30.8z M52.6,96.5c0.5-0.9,1.5-1.7,2.6-2.2C54.6,95.5,53.6,96.1,52.6,96.5z M196,269
		c-0.9,0.4-2.3,0.5-3.4,0.2C193.8,268.5,194.9,268.7,196,269z"/>
	<path class="st0" d="M28.4,136.2c-0.3,0.3-0.2,0.6-0.1,1c0.3-0.6,0.6-1.2,0.9-1.8C28.9,135.7,28.7,135.9,28.4,136.2z"/>
	<path class="st0" d="M30,133.4c0-0.1,0-0.2,0-0.3l-0.2,0.6C29.9,133.6,30,133.5,30,133.4z"/>
	<path class="st0" d="M31.2,130.5c-0.3,0.5-0.6,1-0.8,1.6C30.7,131.7,31,131.2,31.2,130.5z"/>
	<path class="st0" d="M30.1,133.1C30.1,133.1,30.1,133.1,30.1,133.1c0.1-0.3,0.2-0.6,0.3-1c-0.2,0.3-0.4,0.6-0.7,0.8
		C30,132.8,30.1,132.7,30.1,133.1z"/>
	<path class="st0" d="M29.7,132.9c-0.1,0.1-0.3,0.2-0.4,0.3C29.5,133.1,29.6,133,29.7,132.9z"/>
	<path class="st0" d="M31.5,120c-1.6,3.4-2.5,5.7-3.9,8.7c-0.5,1.3-0.8,2.6-1.2,3.9c-0.4,1.3-0.7,2.6-1.1,3.9c-0.3,0.7-0.6,1.4-1,2
		c0.5-0.8,1.1-1.6,1.6-2.6c0.8-1.2,0.4-3.3,1.1-5.4c0.1-0.4,0.9,0.1,1-0.6c0.5-1.6,0.8-3,1.5-4.4c0.1-0.7,1.6-1.2,1.7-1.9
		c0.3-0.8,0.6-2.3,0.7-3.3C32.2,119.5,32.1,119,31.5,120z"/>
	<path class="st0" d="M23.9,145.9c-1.2,1.5-1.9,3.2-2.5,4.9c0.3,0,0.6,0.1,0.9-0.3c0-0.4,0.1-1.1,0.1-1.1c1.2-1.2,1.5-2.8,1.9-4.4
		c-0.2,0.2-0.5,0.3-0.7,0.5C23.2,146.4,23.4,146.5,23.9,145.9z"/>
	<path class="st0" d="M21,151.8L21,151.8c0.1-0.4,0.2-0.7,0.3-1.1c0,0-0.1,0-0.1,0C21.2,151.1,21.1,151.5,21,151.8z"/>
	<path class="st0" d="M240,251.3c-0.6,0.3-1.2,0.6-1.8,0.9c0.3-0.1,0.7-0.2,1-0.2C239.7,251.9,239.8,251.6,240,251.3z"/>
	<path class="st0" d="M236.3,253.2c-0.1,0.1-0.2,0.2-0.2,0.2l0.5-0.4C236.5,253.1,236.4,253.1,236.3,253.2z"/>
	<path class="st0" d="M235.2,254c-0.5,0.2-1,0.4-1.6,0.8C234.2,254.6,234.7,254.4,235.2,254z"/>
	<path class="st0" d="M236,253.4c-0.3,0.2-0.6,0.4-0.9,0.6c0.4-0.1,0.7-0.2,1-0.2C235.9,253.8,235.8,253.7,236,253.4
		C236,253.4,236,253.4,236,253.4z"/>
	<path class="st0" d="M237,257.2c-0.3,0.3-0.6-0.6-1.2-0.1c-1.4,0.9-2.4,1.9-3.8,2.6c-0.5,0.5-2,0-2.5,0.5c-0.7,0.5-1.8,1.5-2.6,2.2
		c-0.7,0.7-1,1.1,0.1,0.6c3.3-1.7,5.4-3,8.4-4.6c1.2-0.7,2.2-1.6,3.3-2.4c1.1-0.8,2.2-1.6,3.3-2.5c0.7-0.4,1.3-0.7,2-1
		c-0.9,0.3-1.8,0.7-2.9,1.1C239.8,254.1,238.8,256,237,257.2z"/>
	<path class="st0" d="M252.8,244.4c-0.2,0.3-0.7,0.8-0.7,0.8c-1.7,0.2-2.9,1.3-4.1,2.4c0.3,0,0.6,0,0.9,0c0.8-0.5,0.7-0.8-0.1-0.6
		c1.9-0.5,3.5-1.4,5-2.4C253.4,244.5,253.3,244.2,252.8,244.4z"/>
	<path class="st0" d="M253.7,244.7C253.7,244.7,253.7,244.7,253.7,244.7c0.4-0.2,0.6-0.4,0.9-0.6l0,0
		C254.3,244.2,254,244.4,253.7,244.7z"/>
	<path class="st0" d="M147.4,140.8c1.2-2.7,2.3-5.3,3.1-7.9c0.1-0.3,0.2-0.8,0.5-1.5c0.2-0.8,0.4-1.2,0.4-1.4l-9.8,2.9
		c-0.2,0.1-1.1,1.1-2.8,3.2c-1.7,2.1-3.7,4.6-6.1,7.5c-0.1,0.1-0.1,0.1-0.2,0.2c0,0,2.5-1.1,6.7-1.3
		C143.4,142.4,147.4,140.9,147.4,140.8z"/>
	<path class="st0" d="M143.6,148.2c0.1-0.2,0.3-0.5,0.4-0.7c0,0-3.1,1-8.6,1.4c-5.5,0.5-9.8,3.8-9.8,3.8c-2.4,3.1-4.3,5.6-5.9,7.6
		c-0.6,0.7-1.4,1.8-2.5,3.4c-1.1,1.5-2.3,3.3-3.6,5.2c-1.3,1.9-2.7,4-4.2,6.1c-1.5,2.1-2.9,4.2-4.2,6.1c-1.3,1.9-2.5,3.7-3.6,5.2
		c-1.1,1.5-1.9,2.7-2.4,3.5c0,0.1-0.1,0.1-0.1,0.2c-0.1,0.1-0.1,0.2-0.1,0.2c-0.3,0.9-0.1,1.4,0.6,1.5c0.7,0.1,1.4,0.1,1.9,0.1
		c1.2,0,2.3-0.1,3.2-0.3c0.9-0.2,2-0.8,3.4-1.7c4.4-3.5,8.8-7.5,13.2-12.1c4.4-4.5,8.4-9.3,12.2-14.3
		C137.3,158.5,140.7,153.4,143.6,148.2z"/>
	<path class="st0" d="M197,151.8c-0.3-2.1-1-4.1-2-6.2c-1-2-2.3-4-3.8-5.9c-1.5-1.9-3.2-3.6-5.1-5c-1.9-1.4-3.8-2.6-5.8-3.4
		c-2-0.8-4-1.3-5.9-1.3c-0.7,0-1.5,0-2.4,0.1c-0.9,0.1-1.9,0.2-2.8,0.5c-0.9,0.3-1.8,0.7-2.6,1.2c-0.8,0.6-1.3,1.3-1.6,2.2
		c-0.2,0.7-0.2,1.2-0.1,1.7c0.2,0.5,0.3,1,0.5,1.5c0.2,0.5,0.4,1,0.5,1.5c0.2,0.5,0.1,1.1-0.1,1.7l-0.2,0.5
		c-2.8,2.7-5.4,5.5-7.7,8.4c-2.3,2.8-4.6,5.7-6.7,8.7c-2.1,2.9-4.2,5.9-6.1,9c-2,3-3.9,6.1-5.9,9.3c-0.5,0.8-1.1,1.7-1.8,2.6
		c-0.8,0.9-1.5,1.9-2.3,2.9c-0.8,1-1.5,2-2.2,3c-0.7,1-1.2,1.9-1.4,2.7c-0.3,0.9-0.3,1.6-0.1,2.1c0.2,0.5,0.6,0.8,1.2,1
		c0.6,0.2,1.2,0.4,1.9,0.4c0.7,0,1.4,0,2.1,0c1.8,0,4.1-0.3,7.1-0.9c3-0.6,6.2-1.5,9.7-2.5c3.5-1.1,7.1-2.3,10.9-3.8
		c3.7-1.4,7.3-3,10.7-4.6c3.4-1.6,6.5-3.2,9.2-5c2.8-1.7,4.8-3.3,6.3-4.9c1.5-1.6,2.7-3.5,3.7-5.7c0.9-2.2,1.7-4.1,2.3-6
		C197.1,155.9,197.3,153.9,197,151.8z M179.6,154c-0.1,1.2-0.2,2.2-0.5,2.9c-0.6,1.8-1.8,3.7-3.6,5.8c-1.8,2.1-3.9,4.1-6.2,6
		c-2.3,1.9-4.7,3.4-7,4.7s-4.4,1.9-6,1.9c-0.1,0-0.3,0-0.5,0c-0.2,0-0.4,0-0.4,0c0.1-0.2,0.2-0.5,0.4-1c0.2-0.5,0.5-0.9,0.7-1.5
		c0.3-0.5,0.5-1,0.8-1.5c0.3-0.5,0.5-0.8,0.6-1c0.4-0.6,1-1.5,1.9-2.7c0.9-1.2,1.9-2.6,3-4.2s2.3-3.2,3.4-4.9
		c1.2-1.7,2.3-3.3,3.4-4.9c1.1-1.5,2.1-2.9,3-4.2c0.9-1.2,1.5-2.2,1.9-2.7c0.1-0.1,0.3-0.3,0.6-0.5c0.3-0.2,0.5-0.4,0.7-0.4
		c0.3-0.1,0.5-0.1,0.5-0.1c1,0,1.7,0.4,2.2,1.3s0.8,1.9,1,3.2C179.7,151.5,179.7,152.8,179.6,154z"/>
</g>
</svg>
